HIERARCHY
ROOT Hips
{
	OFFSET	0.000000	0.000000	0.000000
	CHANNELS 6 Xposition Yposition Zposition Zrotation Xrotation Yrotation
	JOINT LeftHip
	{
		OFFSET	4.740440	-3.195970	-0.322709
		CHANNELS 3 Zrotation Xrotation Yrotation
		JOINT LeftKnee
		{
			OFFSET	-1.605680	-15.592300	1.005510
			CHANNELS 3 Zrotation Xrotation Yrotation
			JOINT LeftAnkle
			{
				OFFSET	-0.632401	-16.421000	-1.413730
				CHANNELS 3 Zrotation Xrotation Yrotation
				End Site
				{
					OFFSET	0.008423	-3.933000	-2.776750
				}
			}
		}
	}
	JOINT RightHip
	{
		OFFSET	-4.740440	-3.195970	-0.322709
		CHANNELS 3 Zrotation Xrotation Yrotation
		JOINT RightKnee
		{
			OFFSET	1.605680	-15.592300	1.005510
			CHANNELS 3 Zrotation Xrotation Yrotation
			JOINT RightAnkle
			{
				OFFSET	0.632401	-16.421000	-1.413730
				CHANNELS 3 Zrotation Xrotation Yrotation
				End Site
				{
					OFFSET	-0.008423	-3.933000	-2.776750
				}
			}
		}
	}
	JOINT Chest
	{
		OFFSET	0.000000	3.468200	0.078401
		CHANNELS 3 Zrotation Xrotation Yrotation
		JOINT LeftCollar
		{
			OFFSET	3.857650	15.070700	-0.011583
			CHANNELS 3 Zrotation Xrotation Yrotation
			JOINT LeftShoulder
			{
				OFFSET	3.979720	-1.940530	-0.165223
				CHANNELS 3 Zrotation Xrotation Yrotation
				JOINT LeftElbow
				{
					OFFSET	0.615844	-10.986600	-0.673886
					CHANNELS 3 Zrotation Xrotation Yrotation
					JOINT LeftWrist
					{
						OFFSET	0.826843	-10.854500	1.034220
						CHANNELS 3 Zrotation Xrotation Yrotation
						End Site
						{
							OFFSET	-1.679080	-8.456540	0.936217
						}
					}
				}
			}
		}
		JOINT RightCollar
		{
			OFFSET	-3.857650	15.070700	-0.011583
			CHANNELS 3 Zrotation Xrotation Yrotation
			JOINT RightShoulder
			{
				OFFSET	-3.979720	-1.940530	-0.165223
				CHANNELS 3 Zrotation Xrotation Yrotation
				JOINT RightElbow
				{
					OFFSET	-0.615845	-10.986600	-0.673886
					CHANNELS 3 Zrotation Xrotation Yrotation
					JOINT RightWrist
					{
						OFFSET	-0.826843	-10.854500	1.034220
						CHANNELS 3 Zrotation Xrotation Yrotation
						End Site
						{
							OFFSET	1.679080	-8.456540	0.936217
						}
					}
				}
			}
		}
		JOINT Neck
		{
			OFFSET	0.000000	15.101400	0.055730
			CHANNELS 3 Zrotation Xrotation Yrotation
			JOINT Head
			{
				OFFSET	0.000000	4.185120	1.488260
				CHANNELS 3 Zrotation Xrotation Yrotation
				End Site
				{
					OFFSET	0.000000	7.773420	-0.106016
				}
			}
		}
	}
}
MOTION
Frames:     12
Frame Time: 0.016667
0.592592	38.499268	-6.795408	3.886934	-11.206227	-17.879650	-5.453496	7.867798	5.978519	-4.741935	1.088944	7.887138	5.650638	0.016423	5.402138	-19.758839	-10.100623	-3.158030	1.235429	26.785887	3.499090	9.324055	-6.802664	8.231748	-6.304374	10.153854	3.329115	-8.171715	1.793581	4.078129	5.856272	-6.860574	-1.766716	-2.040593	-2.725113	-12.511378	11.370265	-0.706495	-15.783998	-7.218481	0.088520	8.874425	0.393223	-2.976894	-3.463297	-3.858671	-5.421440	15.232141	-11.453272	-1.494217	11.376673	-6.351501	16.014780	-5.089216	2.290580	12.874717	-11.971415	
0.592311	38.499065	-6.794939	3.890076	-11.207374	-17.872971	-5.455948	7.868520	5.972436	-4.741935	1.088944	7.887138	5.650638	0.016423	5.402138	-19.763136	-10.098434	-3.163779	1.235429	26.785887	3.499090	9.324055	-6.802664	8.231748	-6.306582	10.154665	3.323005	-8.162725	1.787659	4.069102	5.819932	-6.859013	-1.760233	-2.014294	-2.720632	-12.513454	11.335099	-0.709134	-15.804828	-7.214332	0.083922	8.876497	0.394552	-2.984222	-3.464695	-3.860412	-5.418426	15.232263	-11.451713	-1.495556	11.379154	-6.351501	16.014780	-5.089216	2.271325	12.873710	-11.943030	
0.592311	38.499065	-6.794939	3.890076	-11.207374	-17.872971	-5.455948	7.868520	5.972436	-4.741935	1.088944	7.887138	5.650638	0.016423	5.402138	-19.763136	-10.098434	-3.163779	1.235429	26.785887	3.499090	9.324055	-6.802664	8.231748	-6.306582	10.154665	3.323005	-8.153405	1.781508	4.059741	5.809126	-6.852857	-1.772203	-2.010458	-2.719724	-12.493370	11.335099	-0.709134	-15.804828	-7.206039	0.074738	8.880628	0.392535	-2.986779	-3.468169	-3.861763	-5.416383	15.232350	-11.450509	-1.494718	11.382047	-6.351482	16.013670	-5.098653	2.250807	12.874228	-11.906499	
0.592311	38.499065	-6.794939	3.890076	-11.207374	-17.872971	-5.455948	7.868520	5.972436	-4.741935	1.088944	7.887138	5.650638	0.016423	5.402138	-19.763136	-10.098434	-3.163779	1.235429	26.785887	3.499090	9.324055	-6.802664	8.231748	-6.306582	10.154665	3.323005	-8.144132	1.775391	4.050436	5.804765	-6.862353	-1.764167	-2.004198	-2.691030	-12.489763	11.334395	-0.703895	-15.802232	-7.201367	0.069576	8.882952	0.393446	-2.993522	-3.469820	-3.863097	-5.414350	15.232442	-11.451632	-1.484770	11.384885	-6.351437	16.010862	-5.122559	2.230276	12.877159	-11.860292	
0.592311	38.499065	-6.794939	3.890076	-11.207374	-17.872971	-5.455948	7.868520	5.972436	-4.741935	1.088944	7.887138	5.650638	0.016423	5.402138	-19.763136	-10.098434	-3.163779	1.235429	26.785887	3.499090	9.324055	-6.802664	8.231748	-6.306582	10.154665	3.323005	-8.134816	1.769247	4.041096	5.800647	-6.872517	-1.754503	-1.975022	-2.634740	-12.482400	11.354445	-0.697728	-15.797335	-7.201367	0.069576	8.882952	0.398169	-3.005744	-3.469114	-3.864413	-5.412321	15.232519	-11.452902	-1.474497	11.387638	-6.351084	16.015556	-5.151356	2.216209	12.873166	-11.819564	
0.592311	38.499065	-6.794939	3.890076	-11.207374	-17.872971	-5.455948	7.868520	5.972436	-4.741935	1.088944	7.887138	5.650638	0.016423	5.402138	-19.763136	-10.098434	-3.163779	1.235429	26.785887	3.499090	9.324055	-6.802664	8.231748	-6.306582	10.154665	3.323005	-8.125307	1.762966	4.031564	5.796344	-6.882399	-1.744677	-1.934424	-2.567327	-12.493763	11.414333	-0.697787	-15.772570	-7.201367	0.069576	8.882952	0.402864	-3.017879	-3.468413	-3.867476	-5.406062	15.232697	-11.453623	-1.468711	11.389203	-6.330398	16.032837	-5.191816	2.189870	12.855511	-11.783194	
0.592311	38.499065	-6.794939	3.890076	-11.207374	-17.872971	-5.455948	7.868520	5.972436	-4.741935	1.088944	7.887138	5.650638	0.016423	5.402138	-19.763136	-10.098434	-3.163779	1.235429	26.785887	3.499090	9.324055	-6.802664	8.231748	-6.306582	10.154665	3.323005	-8.115415	1.756445	4.021663	5.791615	-6.891425	-1.734559	-1.889601	-2.493931	-12.482552	11.439263	-0.669162	-15.756644	-7.201367	0.069576	8.882952	0.407707	-3.030403	-3.467685	-3.873027	-5.393849	15.233051	-11.455919	-1.469141	11.376921	-6.328677	16.028452	-5.243788	2.176112	12.861688	-11.730577	
0.592311	38.499065	-6.794939	3.890076	-11.207374	-17.872971	-5.455948	7.868520	5.972436	-4.741935	1.088944	7.887138	5.650638	0.016423	5.402138	-19.763136	-10.098434	-3.163779	1.235429	26.785887	3.499090	9.324055	-6.802664	8.231748	-6.306582	10.154665	3.323005	-8.105376	1.749824	4.011616	5.786621	-6.899716	-1.724379	-1.834724	-2.412846	-12.506309	11.432961	-0.587734	-15.795361	-7.201367	0.069576	8.882952	0.412542	-3.042901	-3.466967	-3.874906	-5.390511	15.233204	-11.459989	-1.460524	11.363900	-6.309386	16.040833	-5.294638	2.148287	12.849381	-11.683374	
0.592311	38.499065	-6.794939	3.890076	-11.207374	-17.872971	-5.455948	7.868520	5.972436	-4.741935	1.088944	7.887138	5.650638	0.016423	5.402138	-19.763136	-10.098434	-3.163779	1.235429	26.785887	3.499090	9.324055	-6.802664	8.231748	-6.306582	10.154665	3.323005	-8.095057	1.743020	4.001297	5.781294	-6.907290	-1.713979	-1.787827	-2.338857	-12.501152	11.407428	-0.620197	-15.785605	-7.201367	0.069576	8.882952	0.418103	-3.053641	-3.470530	-3.876687	-5.390022	15.237505	-11.464696	-1.451246	11.348144	-6.263381	16.039671	-5.309858	2.084232	12.833434	-11.673743	
0.592311	38.499065	-6.794939	3.890076	-11.207374	-17.872971	-5.455948	7.868520	5.972436	-4.741935	1.088944	7.887138	5.650638	0.016423	5.402138	-19.763136	-10.098434	-3.163779	1.235429	26.785887	3.499090	9.324055	-6.802664	8.231748	-6.306582	10.154665	3.323005	-8.084328	1.735932	3.990560	5.775477	-6.913796	-1.703261	-1.764563	-2.292554	-12.495509	11.414075	-0.560911	-15.818497	-7.201367	0.069576	8.882952	0.421819	-3.053522	-3.481900	-3.877041	-5.396568	15.248915	-11.469562	-1.446451	11.327700	-6.260045	16.035587	-5.346426	2.057788	12.831923	-11.625790	
0.592311	38.499065	-6.794939	3.890076	-11.207374	-17.872971	-5.455948	7.868520	5.972436	-4.741935	1.088944	7.887138	5.650638	0.016423	5.402138	-19.763136	-10.098434	-3.163779	1.235429	26.785887	3.499090	9.324055	-6.802664	8.231748	-6.306582	10.154665	3.323005	-8.073667	1.728874	3.979886	5.769562	-6.919594	-1.692652	-1.726507	-2.230070	-12.487034	11.391253	-0.575373	-15.852394	-7.201367	0.069576	8.882952	0.425926	-3.052472	-3.495589	-3.879769	-5.398803	15.262765	-11.483238	-1.449095	11.254890	-6.259974	16.029652	-5.396983	2.036417	12.839084	-11.560510	
0.592311	38.499065	-6.794939	3.890076	-11.207374	-17.872971	-5.455948	7.868520	5.972436	-4.741935	1.088944	7.887138	5.650638	0.016423	5.402138	-19.763136	-10.098434	-3.163779	1.235429	26.785887	3.499090	9.324055	-6.802664	8.231748	-6.306582	10.154665	3.323005	-8.062988	1.721799	3.969192	5.763196	-6.923275	-1.682169	-1.686625	-2.172421	-12.527025	11.388704	-0.518627	-15.830248	-7.201367	0.069576	8.882952	0.430724	-3.051248	-3.511567	-3.882955	-5.401415	15.278930	-11.496855	-1.451857	11.183127	-6.259893	16.022381	-5.458811	2.013084	12.847984	-11.484823	
